{
  "asset": {
    "version": "2.0",
    "generator": "THREE.GLTFExporter"
  },
  "scenes": [
    {
      "nodes": [
        1
      ],
      "name": "Root Scene"
    }
  ],
  "scene": 0,
  "nodes": [
    {
      "name": "Ducky",
      "extras": {
        "components": {
          "pet": {},
          "shape": [
            {
              "shape": "box",
              "halfExtents": {
                "x": 0.12,
                "y": 0.08,
                "z": 0.16
              },
              "offset": {
                "x": 0,
                "y": 0.10507428354726372,
                "z": 0.01001389278835843
              },
              "orientation": {
                "x": 0,
                "y": 0,
                "z": 0,
                "w": 1
              }
            },
            {
              "shape": "sphere",
              "radius": 0.1,
              "offset": {
                "x": 0,
                "y": 0.25635309523880356,
                "z": 0.06766706475524609
              },
              "orientation": {
                "x": 0,
                "y": 0,
                "z": 0,
                "w": 1
              }
            },
            {
              "shape": "cylinder",
              "radiusTop": 0.04,
              "radiusBottom": 0.04,
              "height": 0.060000000000000026,
              "numSegments": 8,
              "offset": {
                "x": 0,
                "y": 0.25852699290771664,
                "z": 0.1811845389035555
              },
              "orientation": {
                "x": 0.7071067811865476,
                "y": 0,
                "z": 0,
                "w": 0.7071067811865475
              }
            }
          ]
        }
      },
      "mesh": 0
    },
    {
      "name": "RootNode",
      "children": [
        0
      ]
    }
  ],
  "bufferViews": [
    {
      "buffer": 0,
      "byteOffset": 0,
      "byteLength": 5724,
      "target": 34962,
      "byteStride": 12
    },
    {
      "buffer": 0,
      "byteOffset": 5724,
      "byteLength": 5724,
      "target": 34962,
      "byteStride": 12
    },
    {
      "buffer": 0,
      "byteOffset": 11448,
      "byteLength": 3816,
      "target": 34962,
      "byteStride": 8
    },
    {
      "buffer": 0,
      "byteOffset": 15264,
      "byteLength": 3336,
      "target": 34963
    }
  ],
  "buffers": [
    {
      "byteLength": 18600,
      "uri": "data:application/octet-stream;base64,"
    }
  ],
  "accessors": [
    {
      "bufferView": 0,
      "componentType": 5126,
      "count": 477,
      "max": [
        0.9942848682403564,
        1,
        0.9996568560600281
      ],
      "min": [
        -0.9942848682403564,
        -1,
        -0.9999497532844543
      ],
      "type": "VEC3"
    },
    {
      "bufferView": 1,
      "componentType": 5126,
      "count": 477,
      "max": [
        0.12363382428884506,
        0.346208781003952,
        0.20871371030807495
      ],
      "min": [
        -0.11759833991527557,
        0.025892293080687523,
        -0.14803721010684967
      ],
      "type": "VEC3"
    },
    {
      "bufferView": 2,
      "componentType": 5126,
      "count": 477,
      "max": [
        0.9954839944839478,
        0.9907207489013672
      ],
      "min": [
        0.008763023652136326,
        0.009869039058685303
      ],
      "type": "VEC2"
    },
    {
      "bufferView": 3,
      "componentType": 5123,
      "count": 1668,
      "max": [
        476
      ],
      "min": [
        0
      ],
      "type": "SCALAR"
    }
  ],
  "materials": [
    {
      "pbrMetallicRoughness": {
        "baseColorFactor": [
          0.5,
          0.5,
          0.5,
          1
        ],
        "metallicFactor": 1,
        "roughnessFactor": 1,
        "metallicRoughnessTexture": {
          "index": 0
        },
        "baseColorTexture": {
          "index": 1
        }
      },
      "name": "DuckyMat",
      "extras": {
        "gltfExtensions": {
          "MOZ_alt_materials": {
            "KHR_materials_unlit": 1
          }
        }
      }
    }
  ],
  "textures": [
    {
      "sampler": 0,
      "source": 0
    },
    {
      "sampler": 1,
      "source": 1
    }
  ],
  "samplers": [
    {
      "magFilter": 9729,
      "minFilter": 9987
    },
    {
      "magFilter": 9729,
      "minFilter": 9987
    }
  ],
  "images": [
    {
      "mimeType": "image/png",
      "uri": "data:image/png;base64,"
    },
    {
      "mimeType": "image/png",
      "uri": "data:image/png;base64,"
    }
  ],
  "meshes": [
    {
      "primitives": [
        {
          "mode": 4,
          "attributes": {
            "NORMAL": 0,
            "POSITION": 1,
            "TEXCOORD_0": 2
          },
          "indices": 3,
          "material": 0
        }
      ]
    }
  ]
}
